<svg id="Layer_1" data-name="Layer 1" xmlns="http://www.w3.org/2000/svg" xmlns:xlink="http://www.w3.org/1999/xlink" viewBox="0 0 158.79 50"><defs><style>.cls-1{fill:none;}.cls-2{clip-path:url(#clip-path);}.cls-3{fill:url(#linear-gradient);}.cls-4{fill:#fff;}.cls-5{font-size:18px;font-family:LEMONMILK-Bold, LEMON MILK;font-weight:700;}</style><clipPath id="clip-path"><rect class="cls-1" width="156" height="50"/></clipPath><linearGradient id="linear-gradient" x1="41.31" y1="46.24" x2="9.31" y2="8.49" gradientTransform="matrix(1, 0, 0, -1, 0, 52)" gradientUnits="userSpaceOnUse"><stop offset="0" stop-color="#2fb97d"/><stop offset="1" stop-color="#1ab69d"/></linearGradient></defs><title>logo</title><g class="cls-2"><path class="cls-3" d="M25,0h0A25,25,0,0,1,50,25h0A25,25,0,0,1,25,50h0A25,25,0,0,1,0,25H0A25,25,0,0,1,25,0Z"/><path class="cls-4" d="M23.88,31.52a3.82,3.82,0,0,0,.73.16q.36,0,.72,0a6.25,6.25,0,0,0,3.29-1,5.71,5.71,0,0,0,1.3-1.15c.39-.46,3.88-5.1,3.47-4.57L37,20.15c-.57.83-2.85,14.11-3.61,14.77A11.83,11.83,0,0,1,31,36.6a11.15,11.15,0,0,1-2.72,1,11.48,11.48,0,0,1-2.93.37,12.1,12.1,0,0,1-4.8-1,12.24,12.24,0,0,1-3.92-2.69A12.53,12.53,0,0,1,14,30.26,13.73,13.73,0,0,1,13,25a14.12,14.12,0,0,1,1-5.33,12.31,12.31,0,0,1,2.64-4.11,12.1,12.1,0,0,1,3.92-2.64,12.27,12.27,0,0,1,4.8-.94,11.69,11.69,0,0,1,3,.37A11.87,11.87,0,0,1,31,13.42a12.22,12.22,0,0,1,2.43,1.7,12,12,0,0,1,2,2.23ZM27,18.59a3.35,3.35,0,0,0-.86-.2,5.8,5.8,0,0,0-.85-.05,6,6,0,0,0-2.39.48A5.74,5.74,0,0,0,21,20.15a6.43,6.43,0,0,0-1.28,2.12A7.45,7.45,0,0,0,19.24,25c0,.23,0,.49,0,.78s.07.59.12.9.13.57.2.85a3.27,3.27,0,0,0,.29.73Z"/></g><text class="cls-5" transform="translate(52.79 33.88)">LEARNING</text></svg>